<svg width="24" height="24" viewBox="0 0 24 24" fill="none" xmlns="http://www.w3.org/2000/svg">
<path d="M7.41406 2.5H16.5859C16.7185 2.50004 16.8457 2.55275 16.9395 2.64648L19.3535 5.06055C19.4472 5.15428 19.5 5.28151 19.5 5.41406V21C19.5 21.2761 19.2761 21.5 19 21.5H5C4.72386 21.5 4.5 21.2761 4.5 21V5.41406C4.50004 5.28151 4.55275 5.15428 4.64648 5.06055L7.06055 2.64648C7.15428 2.55275 7.28151 2.50004 7.41406 2.5Z" stroke="white"/>
<path d="M14 14.4611C14 14.7587 13.7587 15 13.4611 15H10.5389C10.2459 15 10.0076 14.7662 10.0002 14.475L10 14.4611V11.5389C10 11.2413 10.2413 11 10.5389 11H13.4611L13.475 11.0002C13.7662 11.0076 14 11.2459 14 11.5389V14.4611Z" stroke="white" stroke-linecap="round" stroke-linejoin="round"/>
<path d="M13 15V17.5491C13 17.7981 13.1177 18 13.2628 18H14.9865L15 17.9994" stroke="white" stroke-linecap="round" stroke-linejoin="round"/>
<path d="M17 18C17 18.5523 16.5523 19 16 19C15.4477 19 15 18.5523 15 18C15 17.4477 15.4477 17 16 17C16.5523 17 17 17.4477 17 18Z" stroke="white"/>
<path d="M13 11V8.45089C13 8.20188 13.1177 8 13.2628 8H14.9865L15 8.00062" stroke="white" stroke-linecap="round" stroke-linejoin="round"/>
<path d="M17 8C17 7.44772 16.5523 7 16 7C15.4477 7 15 7.44772 15 8C15 8.55228 15.4477 9 16 9C16.5523 9 17 8.55228 17 8Z" stroke="white"/>
<path d="M11 15V17.5491C11 17.7981 10.8823 18 10.7372 18H9.0135L9 17.9994" stroke="white" stroke-linecap="round" stroke-linejoin="round"/>
<path d="M7 18C7 18.5523 7.44772 19 8 19C8.55228 19 9 18.5523 9 18C9 17.4477 8.55228 17 8 17C7.44772 17 7 17.4477 7 18Z" stroke="white"/>
<path d="M11 11V8.45089C11 8.20188 10.8823 8 10.7372 8H9.0135L9 8.00062" stroke="white" stroke-linecap="round" stroke-linejoin="round"/>
<path d="M7 8C7 7.44772 7.44772 7 8 7C8.55228 7 9 7.44772 9 8C9 8.55228 8.55228 9 8 9C7.44772 9 7 8.55228 7 8Z" stroke="white"/>
<path d="M18 13C18 12.4477 17.5523 12 17 12C16.4477 12 16 12.4477 16 13C16 13.5523 16.4477 14 17 14C17.5523 14 18 13.5523 18 13Z" stroke="white"/>
<path d="M14 13H16" stroke="white"/>
<path d="M6 13C6 12.4477 6.44772 12 7 12C7.55228 12 8 12.4477 8 13C8 13.5523 7.55228 14 7 14C6.44772 14 6 13.5523 6 13Z" stroke="white"/>
<path d="M10 13H8" stroke="white"/>
<path d="M8 5H16" stroke="white" stroke-linecap="round"/>
</svg>
