<svg width="24" height="24" viewBox="0 0 24 24" fill="none" xmlns="http://www.w3.org/2000/svg">
<path d="M9.70915 9.31325C9.70173 8.73494 9.31264 8.44578 8.85949 8.44578C8.40633 8.44578 8.00982 8.73494 8.00982 9.31325C8.00982 13.3614 7.76589 16.2436 9.70915 17.5663C10.5588 18.1446 13.1078 18.1446 13.9575 17.5663C15.4479 16.5518 15.7168 15.9458 16 14.5C16.2266 13.3434 16.7168 12.0783 17 11.5C17.5774 10.321 17.6797 9.73133 17 9.5C16.3203 9.26867 15.0904 11.7831 14.8072 12.6506V8.31325C14.8072 7.95886 14.8072 8.00059 14.8072 7.44578C14.8072 6.84397 14.4115 6.57831 13.9575 6.57831C13.5035 6.57831 13.1078 6.84397 13.1078 7.44578C13.1078 8.00059 13.1078 7.95726 13.1078 8.31325M9.70915 9.31325V11.2048M9.70915 9.31325C9.70915 9.09515 9.69228 7.61422 9.70915 7.44578C9.70915 6.86747 10.174 6.57831 10.5588 6.57831C10.9436 6.57831 11.4085 6.86747 11.4085 7.44578C11.4085 7.73494 11.4085 8.31325 11.4085 8.31325M11.4085 8.31325V11.2048M11.4085 8.31325C11.4085 7.73494 11.4085 7.48335 11.4085 6.86747C11.4085 6.25159 11.8534 6 12.2582 6C12.663 6 13.1078 6.28916 13.1078 6.86747C13.1078 7.15663 13.1078 7.83847 13.1078 8.31325M13.1078 8.31325V11.2048" stroke="white" stroke-linecap="round"/>
<path d="M2 11.9949C2 6.83187 5.88894 2.57992 10.8889 2.02551M3.11111 15.8957C3.11111 16.4529 4.04907 18.1247 4.54631 18.682C6.37738 20.7341 9.03833 22.0255 12 22.0255C14.2632 22.0255 16.3508 21.2714 18.0266 20M20.3333 17.5675C21.5 16.5 22 13.6529 22 11.9949C22 7.42196 18.9492 3.56374 14.7778 2.35634" stroke="white"/>
<path d="M20.3714 14.2811L19.9993 18.1017L23.2118 16.0006" stroke="white"/>
<path d="M5.59201 17.5049L2.53123 15.1883L2.64026 19.0254" stroke="white"/>
<path d="M2.03286 12.1156C2.03286 6.98845 5.90663 2.76601 10.8871 2.21545" stroke="white"/>
<path d="M8.5216 4.25421L11.6726 2.06184L7.99053 0.976628" stroke="white"/>
</svg>
